HIERARCHY
ROOT Hips
{
  OFFSET 0 0 0
  CHANNELS 6 Xposition Yposition Zposition Zrotation Yrotation Xrotation
  JOINT LeftThigh
  {
    OFFSET 8.409438 0 -5.917753
    CHANNELS 3 Zrotation Yrotation Xrotation
    JOINT LeftLeg
    {
      OFFSET 0 0 -42.358652
      CHANNELS 3 Zrotation Yrotation Xrotation
      JOINT LeftFoot
      {
        OFFSET 0 0 -39.357303
        CHANNELS 3 Zrotation Yrotation Xrotation
      }
    }
  }
  JOINT RightThigh
  {
    OFFSET -8.409438 0 -5.917753
    CHANNELS 3 Zrotation Yrotation Xrotation
    JOINT RightLeg
    {
      OFFSET 0 0 -42.358652
      CHANNELS 3 Zrotation Yrotation Xrotation
      JOINT RightFoot
      {
        OFFSET 0 0 -39.357303
        CHANNELS 3 Zrotation Yrotation Xrotation
      }
    }
  }
  JOINT SpineLow
  {
    OFFSET 0 0 4.719101
    CHANNELS 3 Zrotation Yrotation Xrotation
    JOINT SpineMid
    {
      OFFSET 0 0 12.899191
      CHANNELS 3 Zrotation Yrotation Xrotation
      JOINT Chest
      {
        OFFSET 0 0 12.899191
        CHANNELS 3 Zrotation Yrotation Xrotation
        JOINT LeftShoulder
        {
          OFFSET 7.550562 1.41573 9.438202
          CHANNELS 3 Zrotation Yrotation Xrotation
          JOINT LeftArm
          {
            OFFSET 9.155056 0 4.247191
            CHANNELS 3 Zrotation Yrotation Xrotation
            JOINT LeftForearm
            {
              OFFSET 0 0 25.771955
              CHANNELS 3 Zrotation Yrotation Xrotation
              JOINT LeftHand
              {
                OFFSET 0 0 25.197169
                CHANNELS 3 Zrotation Yrotation Xrotation
              }
            }
          }
        }
        JOINT RightShoulder
        {
          OFFSET -7.550562 1.41573 9.438202
          CHANNELS 3 Zrotation Yrotation Xrotation
          JOINT RightArm
          {
            OFFSET -9.155056 0 4.247191
            CHANNELS 3 Zrotation Yrotation Xrotation
            JOINT RightForearm
            {
              OFFSET 0 0 -25.771955
              CHANNELS 3 Zrotation Yrotation Xrotation
              JOINT RightHand
              {
                OFFSET 0 0 -25.197169
                CHANNELS 3 Zrotation Yrotation Xrotation
              }
            }
          }
        }
        JOINT Neck
        {
          OFFSET 0 0 15.101124
          CHANNELS 3 Zrotation Yrotation Xrotation
          JOINT Head
          {
            OFFSET 0 0 11.325843
            CHANNELS 3 Zrotation Yrotation Xrotation
            End Site
            {
              OFFSET 0 0 14.157303
            }
          }
        }
      }
    }
  }
}
MOTION
Frames: 13
Frame Time: 0.01
0.0  101.685394  0.0  -1.54706  9.7385  -104.554129  18.521222  -23.251579  -0.589508  -5.903518  8.837463  37.769011  3.650033  4.737906  2.766858  -18.168378  13.613838  -7.91749  2.471266  2.66616  35.426016  9.801531  8.626847  -0.362001  1.363805  0.394399  1.943645  3.75699  0.967319  5.333411  3.75699  0.967319  5.333412  -17.030444  15.037697  25.511919  -124.203889  81.223531  -61.187085  -33.51743  29.73974  92.059301  64.943066  12.323403  -9.737935  14.769333  -25.258326  12.864766  119.78094  61.179081  37.162428  -22.084182  10.627516  -98.752736  78.79217  2.62431  35.009697  0.664688  -4.616007  -2.091426  0.482425  -3.464331  -1.562692  
0.0  101.685394  0.0  -1.034657  5.440169  -104.799543  18.999153  -22.833588  1.256124  -3.986505  7.810744  36.965816  4.003685  4.642946  2.868212  -16.288175  13.825416  -7.135321  3.332587  2.052606  33.531658  10.467078  7.971644  -0.293516  1.756733  0.336498  1.934013  4.825431  0.778178  5.30789  4.825431  0.778178  5.307891  -18.051075  13.229486  24.705505  -119.484053  81.601921  -58.775702  -30.908457  23.807175  94.083151  64.590407  15.213721  -13.278438  13.526599  -25.694123  12.571553  117.852549  56.817275  35.53743  -25.126244  13.922383  -97.634263  83.214268  3.259188  33.472551  0.878935  -4.387883  -1.803411  0.645915  -3.293546  -1.345578  
0.0  101.685394  0.0  -0.579104  1.300808  -104.917512  20.075748  -22.253907  2.837955  -2.653314  6.700958  35.821052  4.426731  4.490789  2.962095  -14.314342  14.04825  -6.480165  3.801895  1.406139  31.569771  11.035668  7.299058  -0.191666  2.044382  0.228396  1.912128  5.602237  0.461853  5.241696  5.602237  0.461853  5.241696  -18.713719  11.447794  23.218466  -110.182833  82.745354  -51.675638  -30.720085  20.239269  95.896401  69.480532  21.336347  -14.999001  12.192608  -25.448347  12.595883  115.051673  52.047861  33.611331  -26.40998  14.11799  -98.188855  88.682032  5.243742  33.784064  1.218255  -4.069134  -1.493836  0.903352  -3.054862  -1.111788  
0.0  101.685394  0.0  -0.216736  -2.569728  -104.99795  21.44762  -21.614258  4.206492  -1.741961  5.60729  34.479449  5.084238  4.350078  3.181583  -12.487385  14.252829  -5.826023  3.968207  0.89951  29.560804  11.738922  6.627897  -0.118448  2.227252  0.104731  1.894209  6.091882  0.111529  5.182227  6.091882  0.111529  5.182227  -19.045462  9.566346  21.472491  -83.855978  84.180622  -27.363525  -30.604918  18.833847  98.59489  79.524981  28.818958  -15.994441  10.667687  -24.815744  13.004914  112.538468  47.329507  32.203739  -24.466491  15.293818  -100.843856  90.912997  6.587393  37.890767  1.656816  -3.79041  -1.117822  1.235222  -2.845872  -0.827779  
0.0  101.685394  0.0  0.057736  -6.053401  -105.03742  22.828166  -21.016968  5.389032  -1.07094  4.63669  33.023712  5.888717  4.171312  3.394416  -10.961365  14.377857  -5.074869  4.029606  0.582171  27.39015  12.483013  6.003953  -0.047373  2.218495  -0.013388  1.90198  6.058689  -0.210823  5.192632  6.058689  -0.210823  5.192632  -18.474706  7.688665  19.380146  -30.947284  83.348493  24.034072  -32.924422  14.680446  100.269805  91.120188  33.638326  -14.791611  9.557094  -23.886533  13.714301  110.762082  42.537779  31.720985  -23.480601  15.737804  -103.745095  91.875246  8.598848  41.545294  2.422371  -3.550725  -0.809313  1.811493  -2.666305  -0.592711  
0.0  101.685394  0.0  0.129645  -8.985271  -104.975985  23.949303  -20.549211  6.379422  -0.35479  3.762521  31.532537  7.006189  4.050771  3.77618  -9.711057  14.329657  -4.237338  3.988915  0.447684  25.144554  13.249566  5.407767  0.021855  2.038647  -0.123286  1.923177  5.55868  -0.49843  5.242219  5.55868  -0.49843  5.242218  -17.359144  5.739882  16.835199  -3.824167  79.482119  50.407971  -36.23572  5.144552  99.653064  100.791943  33.389453  -12.886259  8.656269  -22.836583  14.638639  109.457349  37.446267  31.953138  -22.41828  15.003679  -105.421548  92.87394  10.825762  45.175052  3.430273  -3.418468  -0.592064  2.568628  -2.567271  -0.424725  
0.0  101.685394  0.0  -0.084316  -11.242916  -104.871582  24.600745  -20.418091  7.220322  0.621728  3.093881  30.149588  7.597269  3.895173  3.930125  -8.532807  13.986137  -3.283825  3.789677  0.552023  23.070056  13.951263  4.829961  0.012669  1.675395  -0.237643  1.951838  4.557118  -0.78384  5.315978  4.557117  -0.78384  5.315978  -15.438833  3.65626  14.268035  4.11806  75.225577  57.328921  -38.980596  -8.392644  97.969783  106.738099  30.253065  -13.560838  8.24708  -21.993703  15.773131  107.951236  32.409594  33.044191  -20.65339  14.905382  -105.61563  93.991397  13.566882  49.494004  4.596989  -3.252781  -0.47472  3.444289  -2.443321  -0.331476  
0.0  101.685394  0.0  -0.501686  -12.705669  -104.705635  24.882986  -20.623541  7.86379  1.766979  2.642457  28.942959  7.715276  3.738469  4.011208  -7.810813  13.368226  -2.344261  3.835954  0.84427  21.223466  14.369959  4.282769  -0.078037  1.135394  -0.348541  2.068357  3.071317  -1.048706  5.636282  3.071317  -1.048706  5.636283  -12.812292  1.481031  11.560328  6.797311  70.767539  58.443657  -41.59101  -24.584867  95.606391  109.829715  27.872454  -17.553063  8.82804  -21.158827  16.535582  105.060328  28.161175  34.530855  -20.483425  13.373406  -103.14793  95.1739  19.413643  50.705365  5.988986  -3.041154  -0.756039  4.486928  -2.288537  -0.537129  
0.0  101.685394  0.0  -1.074725  -13.592309  -104.355488  25.198958  -21.132791  8.107053  2.780163  2.3988  27.933355  7.337055  3.634134  4.00191  -7.312115  12.551568  -1.531925  4.081509  1.088447  19.541417  14.324524  3.819945  -0.151718  0.605577  -0.318543  2.408603  1.621792  -0.92992  6.575621  1.621792  -0.92992  6.575621  -9.812574  -1.813483  8.201138  5.615601  66.745295  55.663947  -41.043165  -41.96053  91.46412  110.395425  27.291681  -24.774674  10.740558  -21.402864  14.967975  100.278474  24.671952  36.420091  -20.071468  14.509557  -102.583247  93.609642  22.234464  51.937819  7.266379  -3.217184  -2.107676  5.437325  -2.438382  -1.542311  
0.0  101.685394  0.0  -1.729446  -14.180427  -103.918683  25.873671  -21.929716  7.99294  3.139459  2.374416  27.090171  7.105768  3.665917  4.081372  -6.494022  11.714296  -0.774744  4.102572  1.07397  18.029589  13.807234  3.522718  -0.112903  0.22926  -0.271047  2.608312  0.596638  -0.764587  7.127209  0.596638  -0.764587  7.127209  -7.609277  -4.887978  5.670793  3.206364  63.08863  51.087432  -34.039587  -54.935691  83.355437  108.559436  26.687219  -32.142031  11.476631  -22.278194  14.485332  94.909872  22.334545  38.620235  -19.807094  14.163818  -103.698623  90.836855  24.210884  53.125999  7.935048  -3.692087  -3.066482  5.930858  -2.809508  -2.251516  
0.0  101.685394  0.0  -2.289024  -14.74674  -103.495286  27.209637  -22.851992  7.566104  2.852176  2.663096  26.439223  6.734051  3.624711  4.082848  -5.029877  10.963805  -0.111239  3.504857  0.932956  16.807881  13.211838  3.406568  -0.011974  -0.383793  -0.246129  2.309695  -1.071483  -0.635414  6.317224  -1.071483  -0.635414  6.317224  -4.497743  -7.250946  6.373354  0.82632  60.687675  45.992912  -23.035093  -60.622444  72.990202  105.201172  22.981779  -33.555776  12.253988  -22.650443  17.37328  89.855802  20.416033  40.100465  -18.920487  9.544399  -101.593539  90.604866  30.039  54.667363  9.380677  -4.259186  -2.082106  7.017831  -3.227275  -1.495788  
0.0  101.685394  0.0  -2.721421  -15.167893  -102.847777  28.961488  -23.59661  6.651465  1.832411  3.108892  25.992342  6.497356  3.649625  4.030191  -3.573237  10.294845  0.094198  2.550354  0.90561  15.967171  12.826691  3.374524  8.17E-4  -0.893608  -0.300429  2.178179  -2.46745  -0.739867  5.964232  -2.467451  -0.739867  5.964233  -2.830763  -9.331034  6.264213  -3.069812  59.292526  38.510423  -13.320861  -58.948478  64.97567  102.557592  20.485813  -31.11088  12.699111  -21.566194  18.636269  85.585348  18.600887  40.624611  -17.218246  6.547296  -101.64098  89.782861  33.503938  57.195554  10.30946  -4.404082  -1.787787  7.71546  -3.334359  -1.266172  
0.0  101.685394  0.0  -2.943946  -15.091256  -102.405416  30.266184  -24.099888  5.826998  0.512423  3.656485  25.767531  6.602694  3.675503  4.017532  -2.794785  9.915754  0.21675  1.630231  1.102912  15.460413  12.820627  3.296771  -0.099068  -1.479538  -0.587443  1.920834  -4.088521  -1.486411  5.28491  -4.088521  -1.486411  5.28491  -2.048261  -8.837273  6.88027  -8.511172  57.681838  29.362803  -6.823229  -49.332073  62.323679  103.003656  19.785798  -31.971622  12.726401  -18.637308  21.61315  81.595957  17.622369  40.535345  -18.190744  3.691898  -101.717322  88.252949  36.253842  55.732568  11.148966  -3.703854  -0.587807  8.355252  -2.789713  -0.373184  
